<svg id="Ebene_1" data-name="Ebene 1" xmlns="http://www.w3.org/2000/svg" viewBox="0 0 416 472.94"><defs><style>.cls-1{fill:#bb86fc;}</style></defs><path class="cls-1" d="M668,376v0c-.52-113.38-91.75-205.33-204.85-207-116.93-1.73-213,94.46-211.11,211.39C253.85,493.71,346.26,585,460,585h1.61a3.37,3.37,0,0,1,3.39,3.36v50.22a3.37,3.37,0,0,0,4.33,3.22C498.72,633.07,668,574.32,668,377.88c0-.3,0-.59,0-.88v-1ZM459.5,533A156.5,156.5,0,1,1,616,376.5,156.5,156.5,0,0,1,459.5,533Z" transform="translate(-252 -169)"/><circle class="cls-1" cx="208" cy="207" r="73"/></svg>